%MOIN*%
%OFA0B0*%
%FSLAX44Y44*%
%IPPOS*%
%LPD*%
%ADD10C,0*%
D10*
X00015944Y00031200D02*
X00015944Y00031200D01*
X00011417Y00031200D01*
X00011417Y00031692D01*
X00009169Y00031692D01*
X00009138Y00031694D01*
X00009107Y00031697D01*
X00009077Y00031703D01*
X00009047Y00031712D01*
X00009018Y00031722D01*
X00008990Y00031735D01*
X00008963Y00031750D01*
X00008937Y00031768D01*
X00008913Y00031787D01*
X00008890Y00031808D01*
X00008869Y00031830D01*
X00008850Y00031855D01*
X00008833Y00031880D01*
X00008818Y00031907D01*
X00008805Y00031935D01*
X00008794Y00031964D01*
X00008786Y00031994D01*
X00008780Y00032025D01*
X00008776Y00032055D01*
X00009169Y00032086D01*
X00008776Y00032117D01*
X00008780Y00032148D01*
X00008786Y00032178D01*
X00008794Y00032208D01*
X00008805Y00032237D01*
X00008818Y00032265D01*
X00008833Y00032292D01*
X00008850Y00032318D01*
X00008869Y00032342D01*
X00008890Y00032365D01*
X00008913Y00032385D01*
X00008937Y00032405D01*
X00008963Y00032422D01*
X00008990Y00032437D01*
X00009018Y00032450D01*
X00009047Y00032461D01*
X00009077Y00032469D01*
X00009107Y00032475D01*
X00009138Y00032479D01*
X00009169Y00032480D01*
X00011417Y00032480D01*
X00011417Y00032972D01*
X00015944Y00032972D01*
X00015944Y00034137D01*
X00016338Y00034137D01*
X00015949Y00034199D01*
X00015964Y00034259D01*
X00015987Y00034316D01*
X00016020Y00034369D01*
X00016060Y00034416D01*
X00016107Y00034456D01*
X00016159Y00034488D01*
X00016216Y00034512D01*
X00016276Y00034526D01*
X00016338Y00034531D01*
X00016400Y00034526D01*
X00016460Y00034512D01*
X00016517Y00034488D01*
X00016569Y00034456D01*
X00016616Y00034416D01*
X00016657Y00034369D01*
X00016689Y00034316D01*
X00016713Y00034259D01*
X00016727Y00034199D01*
X00016732Y00034137D01*
X00016732Y00032480D01*
X00023507Y00032480D01*
X00023507Y00032480D01*
X00023569Y00032475D01*
X00023629Y00032461D01*
X00023686Y00032437D01*
X00023739Y00032405D01*
X00023786Y00032365D01*
X00023826Y00032318D01*
X00023858Y00032265D01*
X00023882Y00032208D01*
X00023896Y00032148D01*
X00023901Y00032086D01*
X00023896Y00032025D01*
X00023882Y00031964D01*
X00023858Y00031907D01*
X00023826Y00031855D01*
X00023786Y00031808D01*
X00023739Y00031768D01*
X00023686Y00031735D01*
X00023629Y00031712D01*
X00023569Y00031697D01*
X00023507Y00031692D01*
X00016732Y00031692D01*
X00016732Y00030035D01*
X00016727Y00029973D01*
X00016713Y00029913D01*
X00016689Y00029856D01*
X00016657Y00029803D01*
X00016616Y00029756D01*
X00016569Y00029716D01*
X00016517Y00029684D01*
X00016460Y00029660D01*
X00016400Y00029646D01*
X00016338Y00029641D01*
X00016276Y00029646D01*
X00016216Y00029660D01*
X00016159Y00029684D01*
X00016107Y00029716D01*
X00016060Y00029756D01*
X00016020Y00029803D01*
X00015987Y00029856D01*
X00015964Y00029913D01*
X00015949Y00029973D01*
X00016338Y00030035D01*
X00015944Y00030035D01*
X00015944Y00031200D01*
X00015944Y00024704D02*
X00015944Y00024704D01*
X00011417Y00024704D01*
X00011417Y00025196D01*
X00009169Y00025196D01*
X00009138Y00025198D01*
X00009107Y00025201D01*
X00009077Y00025207D01*
X00009047Y00025216D01*
X00009018Y00025226D01*
X00008990Y00025239D01*
X00008963Y00025254D01*
X00008937Y00025272D01*
X00008913Y00025291D01*
X00008890Y00025312D01*
X00008869Y00025334D01*
X00008850Y00025359D01*
X00008833Y00025384D01*
X00008818Y00025411D01*
X00008805Y00025439D01*
X00008794Y00025468D01*
X00008786Y00025498D01*
X00008780Y00025528D01*
X00008776Y00025559D01*
X00009169Y00025590D01*
X00008776Y00025621D01*
X00008780Y00025652D01*
X00008786Y00025682D01*
X00008794Y00025712D01*
X00008805Y00025741D01*
X00008818Y00025769D01*
X00008833Y00025796D01*
X00008850Y00025821D01*
X00008869Y00025846D01*
X00008890Y00025868D01*
X00008913Y00025889D01*
X00008937Y00025909D01*
X00008963Y00025926D01*
X00008990Y00025941D01*
X00009018Y00025954D01*
X00009047Y00025964D01*
X00009077Y00025973D01*
X00009107Y00025979D01*
X00009138Y00025983D01*
X00009169Y00025984D01*
X00011417Y00025984D01*
X00011417Y00026476D01*
X00015944Y00026476D01*
X00015944Y00027641D01*
X00016338Y00027641D01*
X00015949Y00027703D01*
X00015964Y00027763D01*
X00015987Y00027820D01*
X00016020Y00027873D01*
X00016060Y00027920D01*
X00016107Y00027960D01*
X00016159Y00027992D01*
X00016216Y00028016D01*
X00016276Y00028030D01*
X00016338Y00028035D01*
X00016400Y00028030D01*
X00016460Y00028016D01*
X00016517Y00027992D01*
X00016569Y00027960D01*
X00016616Y00027920D01*
X00016657Y00027873D01*
X00016689Y00027820D01*
X00016713Y00027763D01*
X00016727Y00027703D01*
X00016732Y00027641D01*
X00016732Y00025984D01*
X00023507Y00025984D01*
X00023507Y00025984D01*
X00023569Y00025979D01*
X00023629Y00025964D01*
X00023686Y00025941D01*
X00023739Y00025909D01*
X00023786Y00025868D01*
X00023826Y00025821D01*
X00023858Y00025769D01*
X00023882Y00025712D01*
X00023896Y00025652D01*
X00023901Y00025590D01*
X00023896Y00025528D01*
X00023882Y00025468D01*
X00023858Y00025411D01*
X00023826Y00025359D01*
X00023786Y00025312D01*
X00023739Y00025272D01*
X00023686Y00025239D01*
X00023629Y00025216D01*
X00023569Y00025201D01*
X00023507Y00025196D01*
X00016732Y00025196D01*
X00016732Y00023539D01*
X00016727Y00023477D01*
X00016713Y00023417D01*
X00016689Y00023360D01*
X00016657Y00023307D01*
X00016616Y00023260D01*
X00016569Y00023220D01*
X00016517Y00023188D01*
X00016460Y00023164D01*
X00016400Y00023150D01*
X00016338Y00023145D01*
X00016276Y00023150D01*
X00016216Y00023164D01*
X00016159Y00023188D01*
X00016107Y00023220D01*
X00016060Y00023260D01*
X00016020Y00023307D01*
X00015987Y00023360D01*
X00015964Y00023417D01*
X00015949Y00023477D01*
X00016338Y00023539D01*
X00015944Y00023539D01*
X00015944Y00024704D01*
X00015944Y00018208D02*
X00015944Y00018208D01*
X00011417Y00018208D01*
X00011417Y00018700D01*
X00009169Y00018700D01*
X00009138Y00018702D01*
X00009107Y00018705D01*
X00009077Y00018711D01*
X00009047Y00018720D01*
X00009018Y00018730D01*
X00008990Y00018743D01*
X00008963Y00018758D01*
X00008937Y00018775D01*
X00008913Y00018795D01*
X00008890Y00018816D01*
X00008869Y00018838D01*
X00008850Y00018863D01*
X00008833Y00018888D01*
X00008818Y00018915D01*
X00008805Y00018943D01*
X00008794Y00018972D01*
X00008786Y00019002D01*
X00008780Y00019032D01*
X00008776Y00019063D01*
X00009169Y00019094D01*
X00008776Y00019125D01*
X00008780Y00019156D01*
X00008786Y00019186D01*
X00008794Y00019216D01*
X00008805Y00019245D01*
X00008818Y00019273D01*
X00008833Y00019300D01*
X00008850Y00019325D01*
X00008869Y00019350D01*
X00008890Y00019372D01*
X00008913Y00019393D01*
X00008937Y00019412D01*
X00008963Y00019430D01*
X00008990Y00019445D01*
X00009018Y00019458D01*
X00009047Y00019468D01*
X00009077Y00019477D01*
X00009107Y00019483D01*
X00009138Y00019486D01*
X00009169Y00019488D01*
X00011417Y00019488D01*
X00011417Y00019980D01*
X00015944Y00019980D01*
X00015944Y00021145D01*
X00016338Y00021145D01*
X00015949Y00021207D01*
X00015964Y00021267D01*
X00015987Y00021324D01*
X00016020Y00021377D01*
X00016060Y00021424D01*
X00016107Y00021464D01*
X00016159Y00021496D01*
X00016216Y00021520D01*
X00016276Y00021534D01*
X00016338Y00021539D01*
X00016400Y00021534D01*
X00016460Y00021520D01*
X00016517Y00021496D01*
X00016569Y00021464D01*
X00016616Y00021424D01*
X00016657Y00021377D01*
X00016689Y00021324D01*
X00016713Y00021267D01*
X00016727Y00021207D01*
X00016732Y00021145D01*
X00016732Y00019488D01*
X00023507Y00019488D01*
X00023507Y00019488D01*
X00023569Y00019483D01*
X00023629Y00019468D01*
X00023686Y00019445D01*
X00023739Y00019412D01*
X00023786Y00019372D01*
X00023826Y00019325D01*
X00023858Y00019273D01*
X00023882Y00019216D01*
X00023896Y00019156D01*
X00023901Y00019094D01*
X00023896Y00019032D01*
X00023882Y00018972D01*
X00023858Y00018915D01*
X00023826Y00018863D01*
X00023786Y00018816D01*
X00023739Y00018775D01*
X00023686Y00018743D01*
X00023629Y00018720D01*
X00023569Y00018705D01*
X00023507Y00018700D01*
X00016732Y00018700D01*
X00016732Y00017043D01*
X00016727Y00016981D01*
X00016713Y00016921D01*
X00016689Y00016864D01*
X00016657Y00016811D01*
X00016616Y00016764D01*
X00016569Y00016724D01*
X00016517Y00016692D01*
X00016460Y00016668D01*
X00016400Y00016654D01*
X00016338Y00016649D01*
X00016276Y00016654D01*
X00016216Y00016668D01*
X00016159Y00016692D01*
X00016107Y00016724D01*
X00016060Y00016764D01*
X00016020Y00016811D01*
X00015987Y00016864D01*
X00015964Y00016921D01*
X00015949Y00016981D01*
X00016338Y00017043D01*
X00015944Y00017043D01*
X00015944Y00018208D01*
X00015944Y00010547D02*
X00015944Y00010547D01*
X00015944Y00011712D01*
X00011417Y00011712D01*
X00011417Y00012204D01*
X00009169Y00012204D01*
X00009138Y00012205D01*
X00009107Y00012209D01*
X00009077Y00012215D01*
X00009047Y00012223D01*
X00009018Y00012234D01*
X00008990Y00012247D01*
X00008963Y00012262D01*
X00008937Y00012279D01*
X00008913Y00012299D01*
X00008890Y00012320D01*
X00008869Y00012342D01*
X00008850Y00012367D01*
X00008833Y00012392D01*
X00008818Y00012419D01*
X00008805Y00012447D01*
X00008794Y00012476D01*
X00008786Y00012506D01*
X00008780Y00012536D01*
X00008776Y00012567D01*
X00009169Y00012598D01*
X00008776Y00012629D01*
X00008780Y00012660D01*
X00008786Y00012690D01*
X00008794Y00012720D01*
X00008805Y00012749D01*
X00008818Y00012777D01*
X00008833Y00012804D01*
X00008850Y00012829D01*
X00008869Y00012854D01*
X00008890Y00012876D01*
X00008913Y00012897D01*
X00008937Y00012916D01*
X00008963Y00012934D01*
X00008990Y00012949D01*
X00009018Y00012962D01*
X00009047Y00012972D01*
X00009077Y00012981D01*
X00009107Y00012987D01*
X00009138Y00012990D01*
X00009169Y00012992D01*
X00011417Y00012992D01*
X00011417Y00013484D01*
X00015944Y00013484D01*
X00015944Y00014649D01*
X00016338Y00014649D01*
X00015949Y00014711D01*
X00015964Y00014771D01*
X00015987Y00014828D01*
X00016020Y00014881D01*
X00016060Y00014928D01*
X00016107Y00014968D01*
X00016159Y00015000D01*
X00016216Y00015024D01*
X00016276Y00015038D01*
X00016338Y00015043D01*
X00016400Y00015038D01*
X00016460Y00015024D01*
X00016517Y00015000D01*
X00016569Y00014968D01*
X00016616Y00014928D01*
X00016657Y00014881D01*
X00016689Y00014828D01*
X00016713Y00014771D01*
X00016727Y00014711D01*
X00016732Y00014649D01*
X00016732Y00012992D01*
X00023507Y00012992D01*
X00023507Y00012992D01*
X00023569Y00012987D01*
X00023629Y00012972D01*
X00023686Y00012949D01*
X00023739Y00012916D01*
X00023786Y00012876D01*
X00023826Y00012829D01*
X00023858Y00012777D01*
X00023882Y00012720D01*
X00023896Y00012660D01*
X00023901Y00012598D01*
X00023896Y00012536D01*
X00023882Y00012476D01*
X00023858Y00012419D01*
X00023826Y00012367D01*
X00023786Y00012320D01*
X00023739Y00012279D01*
X00023686Y00012247D01*
X00023629Y00012223D01*
X00023569Y00012209D01*
X00023507Y00012204D01*
X00016732Y00012204D01*
X00016732Y00010547D01*
X00016732Y00010547D01*
X00016727Y00010485D01*
X00016713Y00010425D01*
X00016689Y00010368D01*
X00016657Y00010315D01*
X00016616Y00010268D01*
X00016569Y00010228D01*
X00016517Y00010196D01*
X00016460Y00010172D01*
X00016400Y00010158D01*
X00016338Y00010153D01*
X00016276Y00010158D01*
X00016216Y00010172D01*
X00016159Y00010196D01*
X00016107Y00010228D01*
X00016060Y00010268D01*
X00016020Y00010315D01*
X00015987Y00010368D01*
X00015964Y00010425D01*
X00015949Y00010485D01*
X00015944Y00010547D01*
X00015944Y00004051D02*
X00015944Y00004051D01*
X00015944Y00005216D01*
X00011417Y00005216D01*
X00011417Y00005708D01*
X00009169Y00005708D01*
X00009138Y00005709D01*
X00009107Y00005713D01*
X00009077Y00005719D01*
X00009047Y00005727D01*
X00009018Y00005738D01*
X00008990Y00005751D01*
X00008963Y00005766D01*
X00008937Y00005783D01*
X00008913Y00005802D01*
X00008890Y00005823D01*
X00008869Y00005846D01*
X00008850Y00005870D01*
X00008833Y00005896D01*
X00008818Y00005923D01*
X00008805Y00005951D01*
X00008794Y00005980D01*
X00008786Y00006010D01*
X00008780Y00006040D01*
X00008776Y00006071D01*
X00009169Y00006102D01*
X00008776Y00006133D01*
X00008780Y00006163D01*
X00008786Y00006194D01*
X00008794Y00006224D01*
X00008805Y00006253D01*
X00008818Y00006281D01*
X00008833Y00006308D01*
X00008850Y00006333D01*
X00008869Y00006358D01*
X00008890Y00006380D01*
X00008913Y00006401D01*
X00008937Y00006420D01*
X00008963Y00006438D01*
X00008990Y00006453D01*
X00009018Y00006466D01*
X00009047Y00006476D01*
X00009077Y00006485D01*
X00009107Y00006491D01*
X00009138Y00006494D01*
X00009169Y00006496D01*
X00011417Y00006496D01*
X00011417Y00006988D01*
X00015944Y00006988D01*
X00015944Y00008153D01*
X00015944Y00008153D01*
X00015949Y00008215D01*
X00015964Y00008275D01*
X00015987Y00008332D01*
X00016020Y00008385D01*
X00016060Y00008432D01*
X00016107Y00008472D01*
X00016159Y00008504D01*
X00016216Y00008528D01*
X00016276Y00008542D01*
X00016338Y00008547D01*
X00016400Y00008542D01*
X00016460Y00008528D01*
X00016517Y00008504D01*
X00016569Y00008472D01*
X00016616Y00008432D01*
X00016657Y00008385D01*
X00016689Y00008332D01*
X00016713Y00008275D01*
X00016727Y00008215D01*
X00016732Y00008153D01*
X00016732Y00006496D01*
X00023507Y00006496D01*
X00023507Y00006496D01*
X00023569Y00006491D01*
X00023629Y00006476D01*
X00023686Y00006453D01*
X00023739Y00006420D01*
X00023786Y00006380D01*
X00023826Y00006333D01*
X00023858Y00006281D01*
X00023882Y00006224D01*
X00023896Y00006163D01*
X00023901Y00006102D01*
X00023896Y00006040D01*
X00023882Y00005980D01*
X00023858Y00005923D01*
X00023826Y00005870D01*
X00023786Y00005823D01*
X00023739Y00005783D01*
X00023686Y00005751D01*
X00023629Y00005727D01*
X00023569Y00005713D01*
X00023507Y00005708D01*
X00016732Y00005708D01*
X00016732Y00004051D01*
X00016732Y00004051D01*
X00016727Y00003989D01*
X00016713Y00003929D01*
X00016689Y00003872D01*
X00016657Y00003819D01*
X00016616Y00003772D01*
X00016569Y00003732D01*
X00016517Y00003700D01*
X00016460Y00003676D01*
X00016400Y00003662D01*
X00016338Y00003657D01*
X00016276Y00003662D01*
X00016216Y00003676D01*
X00016159Y00003700D01*
X00016107Y00003732D01*
X00016060Y00003772D01*
X00016020Y00003819D01*
X00015987Y00003872D01*
X00015964Y00003929D01*
X00015949Y00003989D01*
X00015944Y00004051D01*
X00006775Y00005708D02*
X00006775Y00005708D01*
X00000000Y00005708D01*
X00000000Y00000000D01*
X00011417Y00000000D01*
X00011417Y00000492D01*
X00015944Y00000492D01*
X00015944Y00001657D01*
X00015944Y00001657D01*
X00015949Y00001719D01*
X00015964Y00001779D01*
X00015987Y00001836D01*
X00016020Y00001888D01*
X00016060Y00001935D01*
X00016107Y00001976D01*
X00016159Y00002008D01*
X00016216Y00002032D01*
X00016276Y00002046D01*
X00016338Y00002051D01*
X00016400Y00002046D01*
X00016460Y00002032D01*
X00016517Y00002008D01*
X00016569Y00001976D01*
X00016616Y00001935D01*
X00016657Y00001888D01*
X00016689Y00001836D01*
X00016713Y00001779D01*
X00016727Y00001719D01*
X00016732Y00001657D01*
X00016732Y00000000D01*
X00028149Y00000000D01*
X00028149Y00000492D01*
X00032677Y00000492D01*
X00032677Y00005216D01*
X00028149Y00005216D01*
X00028149Y00005708D01*
X00025901Y00005708D01*
X00025870Y00005709D01*
X00025839Y00005713D01*
X00025809Y00005719D01*
X00025779Y00005727D01*
X00025750Y00005738D01*
X00025722Y00005751D01*
X00025695Y00005766D01*
X00025670Y00005783D01*
X00025645Y00005802D01*
X00025623Y00005823D01*
X00025602Y00005846D01*
X00025582Y00005870D01*
X00025565Y00005896D01*
X00025550Y00005923D01*
X00025537Y00005951D01*
X00025527Y00005980D01*
X00025518Y00006010D01*
X00025512Y00006040D01*
X00025508Y00006071D01*
X00025901Y00006102D01*
X00025508Y00006133D01*
X00025512Y00006163D01*
X00025518Y00006194D01*
X00025527Y00006224D01*
X00025537Y00006253D01*
X00025550Y00006281D01*
X00025565Y00006308D01*
X00025582Y00006333D01*
X00025602Y00006358D01*
X00025623Y00006380D01*
X00025645Y00006401D01*
X00025670Y00006420D01*
X00025695Y00006438D01*
X00025722Y00006453D01*
X00025750Y00006466D01*
X00025779Y00006476D01*
X00025809Y00006485D01*
X00025839Y00006491D01*
X00025870Y00006494D01*
X00025901Y00006496D01*
X00028149Y00006496D01*
X00028149Y00006988D01*
X00032677Y00006988D01*
X00032677Y00011712D01*
X00028149Y00011712D01*
X00028149Y00012204D01*
X00025901Y00012204D01*
X00025870Y00012205D01*
X00025839Y00012209D01*
X00025809Y00012215D01*
X00025779Y00012223D01*
X00025750Y00012234D01*
X00025722Y00012247D01*
X00025695Y00012262D01*
X00025670Y00012279D01*
X00025645Y00012299D01*
X00025623Y00012320D01*
X00025602Y00012342D01*
X00025582Y00012367D01*
X00025565Y00012392D01*
X00025550Y00012419D01*
X00025537Y00012447D01*
X00025527Y00012476D01*
X00025518Y00012506D01*
X00025512Y00012536D01*
X00025508Y00012567D01*
X00025901Y00012598D01*
X00025508Y00012629D01*
X00025512Y00012660D01*
X00025518Y00012690D01*
X00025527Y00012720D01*
X00025537Y00012749D01*
X00025550Y00012777D01*
X00025565Y00012804D01*
X00025582Y00012829D01*
X00025602Y00012854D01*
X00025623Y00012876D01*
X00025645Y00012897D01*
X00025670Y00012916D01*
X00025695Y00012934D01*
X00025722Y00012949D01*
X00025750Y00012962D01*
X00025779Y00012972D01*
X00025809Y00012981D01*
X00025839Y00012987D01*
X00025870Y00012990D01*
X00025901Y00012992D01*
X00028149Y00012992D01*
X00028149Y00013484D01*
X00032677Y00013484D01*
X00032677Y00018208D01*
X00028149Y00018208D01*
X00028149Y00018700D01*
X00025901Y00018700D01*
X00025870Y00018702D01*
X00025839Y00018705D01*
X00025809Y00018711D01*
X00025779Y00018720D01*
X00025750Y00018730D01*
X00025722Y00018743D01*
X00025695Y00018758D01*
X00025670Y00018775D01*
X00025645Y00018795D01*
X00025623Y00018816D01*
X00025602Y00018838D01*
X00025582Y00018863D01*
X00025565Y00018888D01*
X00025550Y00018915D01*
X00025537Y00018943D01*
X00025527Y00018972D01*
X00025518Y00019002D01*
X00025512Y00019032D01*
X00025508Y00019063D01*
X00025901Y00019094D01*
X00025508Y00019125D01*
X00025512Y00019156D01*
X00025518Y00019186D01*
X00025527Y00019216D01*
X00025537Y00019245D01*
X00025550Y00019273D01*
X00025565Y00019300D01*
X00025582Y00019325D01*
X00025602Y00019350D01*
X00025623Y00019372D01*
X00025645Y00019393D01*
X00025670Y00019412D01*
X00025695Y00019430D01*
X00025722Y00019445D01*
X00025750Y00019458D01*
X00025779Y00019468D01*
X00025809Y00019477D01*
X00025839Y00019483D01*
X00025870Y00019486D01*
X00025901Y00019488D01*
X00028149Y00019488D01*
X00028149Y00019980D01*
X00032677Y00019980D01*
X00032677Y00024704D01*
X00028149Y00024704D01*
X00028149Y00025196D01*
X00025901Y00025196D01*
X00025870Y00025198D01*
X00025839Y00025201D01*
X00025809Y00025207D01*
X00025779Y00025216D01*
X00025750Y00025226D01*
X00025722Y00025239D01*
X00025695Y00025254D01*
X00025670Y00025272D01*
X00025645Y00025291D01*
X00025623Y00025312D01*
X00025602Y00025334D01*
X00025582Y00025359D01*
X00025565Y00025384D01*
X00025550Y00025411D01*
X00025537Y00025439D01*
X00025527Y00025468D01*
X00025518Y00025498D01*
X00025512Y00025528D01*
X00025508Y00025559D01*
X00025901Y00025590D01*
X00025508Y00025621D01*
X00025512Y00025652D01*
X00025518Y00025682D01*
X00025527Y00025712D01*
X00025537Y00025741D01*
X00025550Y00025769D01*
X00025565Y00025796D01*
X00025582Y00025821D01*
X00025602Y00025846D01*
X00025623Y00025868D01*
X00025645Y00025889D01*
X00025670Y00025909D01*
X00025695Y00025926D01*
X00025722Y00025941D01*
X00025750Y00025954D01*
X00025779Y00025964D01*
X00025809Y00025973D01*
X00025839Y00025979D01*
X00025870Y00025983D01*
X00025901Y00025984D01*
X00028149Y00025984D01*
X00028149Y00026476D01*
X00032677Y00026476D01*
X00032677Y00031200D01*
X00028149Y00031200D01*
X00028149Y00031692D01*
X00025901Y00031692D01*
X00025870Y00031694D01*
X00025839Y00031697D01*
X00025809Y00031703D01*
X00025779Y00031712D01*
X00025750Y00031722D01*
X00025722Y00031735D01*
X00025695Y00031750D01*
X00025670Y00031768D01*
X00025645Y00031787D01*
X00025623Y00031808D01*
X00025602Y00031830D01*
X00025582Y00031855D01*
X00025565Y00031880D01*
X00025550Y00031907D01*
X00025537Y00031935D01*
X00025527Y00031964D01*
X00025518Y00031994D01*
X00025512Y00032025D01*
X00025508Y00032055D01*
X00025901Y00032086D01*
X00025508Y00032117D01*
X00025512Y00032148D01*
X00025518Y00032178D01*
X00025527Y00032208D01*
X00025537Y00032237D01*
X00025550Y00032265D01*
X00025565Y00032292D01*
X00025582Y00032318D01*
X00025602Y00032342D01*
X00025623Y00032365D01*
X00025645Y00032385D01*
X00025670Y00032405D01*
X00025695Y00032422D01*
X00025722Y00032437D01*
X00025750Y00032450D01*
X00025779Y00032461D01*
X00025809Y00032469D01*
X00025839Y00032475D01*
X00025870Y00032479D01*
X00025901Y00032480D01*
X00028149Y00032480D01*
X00028149Y00032972D01*
X00032677Y00032972D01*
X00032677Y00037696D01*
X00028149Y00037696D01*
X00028149Y00038188D01*
X00016732Y00038188D01*
X00016732Y00036531D01*
X00016727Y00036469D01*
X00016713Y00036409D01*
X00016689Y00036352D01*
X00016657Y00036299D01*
X00016616Y00036253D01*
X00016569Y00036212D01*
X00016517Y00036180D01*
X00016460Y00036156D01*
X00016400Y00036142D01*
X00016338Y00036137D01*
X00016276Y00036142D01*
X00016216Y00036156D01*
X00016159Y00036180D01*
X00016107Y00036212D01*
X00016060Y00036253D01*
X00016020Y00036299D01*
X00015987Y00036352D01*
X00015964Y00036409D01*
X00015949Y00036469D01*
X00016338Y00036531D01*
X00015944Y00036531D01*
X00015944Y00037696D01*
X00011417Y00037696D01*
X00011417Y00038188D01*
X00000000Y00038188D01*
X00000000Y00032480D01*
X00006775Y00032480D01*
X00006775Y00032480D01*
X00006837Y00032475D01*
X00006897Y00032461D01*
X00006954Y00032437D01*
X00007007Y00032405D01*
X00007054Y00032365D01*
X00007094Y00032318D01*
X00007126Y00032265D01*
X00007150Y00032208D01*
X00007164Y00032148D01*
X00007169Y00032086D01*
X00007164Y00032025D01*
X00007150Y00031964D01*
X00007126Y00031907D01*
X00007094Y00031855D01*
X00007054Y00031808D01*
X00007007Y00031768D01*
X00006954Y00031735D01*
X00006897Y00031712D01*
X00006837Y00031697D01*
X00006775Y00031692D01*
X00000000Y00031692D01*
X00000000Y00025984D01*
X00006775Y00025984D01*
X00006775Y00025984D01*
X00006837Y00025979D01*
X00006897Y00025964D01*
X00006954Y00025941D01*
X00007007Y00025909D01*
X00007054Y00025868D01*
X00007094Y00025821D01*
X00007126Y00025769D01*
X00007150Y00025712D01*
X00007164Y00025652D01*
X00007169Y00025590D01*
X00007164Y00025528D01*
X00007150Y00025468D01*
X00007126Y00025411D01*
X00007094Y00025359D01*
X00007054Y00025312D01*
X00007007Y00025272D01*
X00006954Y00025239D01*
X00006897Y00025216D01*
X00006837Y00025201D01*
X00006775Y00025196D01*
X00000000Y00025196D01*
X00000000Y00019488D01*
X00006775Y00019488D01*
X00006775Y00019488D01*
X00006837Y00019483D01*
X00006897Y00019468D01*
X00006954Y00019445D01*
X00007007Y00019412D01*
X00007054Y00019372D01*
X00007094Y00019325D01*
X00007126Y00019273D01*
X00007150Y00019216D01*
X00007164Y00019156D01*
X00007169Y00019094D01*
X00007164Y00019032D01*
X00007150Y00018972D01*
X00007126Y00018915D01*
X00007094Y00018863D01*
X00007054Y00018816D01*
X00007007Y00018775D01*
X00006954Y00018743D01*
X00006897Y00018720D01*
X00006837Y00018705D01*
X00006775Y00018700D01*
X00000000Y00018700D01*
X00000000Y00012992D01*
X00006775Y00012992D01*
X00006775Y00012992D01*
X00006837Y00012987D01*
X00006897Y00012972D01*
X00006954Y00012949D01*
X00007007Y00012916D01*
X00007054Y00012876D01*
X00007094Y00012829D01*
X00007126Y00012777D01*
X00007150Y00012720D01*
X00007164Y00012660D01*
X00007169Y00012598D01*
X00007164Y00012536D01*
X00007150Y00012476D01*
X00007126Y00012419D01*
X00007094Y00012367D01*
X00007054Y00012320D01*
X00007007Y00012279D01*
X00006954Y00012247D01*
X00006897Y00012223D01*
X00006837Y00012209D01*
X00006775Y00012204D01*
X00000000Y00012204D01*
X00000000Y00006496D01*
X00006775Y00006496D01*
X00006775Y00006496D01*
X00006837Y00006491D01*
X00006897Y00006476D01*
X00006954Y00006453D01*
X00007007Y00006420D01*
X00007054Y00006380D01*
X00007094Y00006333D01*
X00007126Y00006281D01*
X00007150Y00006224D01*
X00007164Y00006163D01*
X00007169Y00006102D01*
X00007164Y00006040D01*
X00007150Y00005980D01*
X00007126Y00005923D01*
X00007094Y00005870D01*
X00007054Y00005823D01*
X00007007Y00005783D01*
X00006954Y00005751D01*
X00006897Y00005727D01*
X00006837Y00005713D01*
X00006775Y00005708D01*
M02*