%MOIN*%
%OFA0B0*%
%FSLAX46Y46*%
%IPPOS*%
%LPD*%
%ADD10C,0.0039370078740157488*%
%ADD11R,0.023385826771653545X0.019448818897637797*%
%ADD12R,0.029291338582677167X0.031259842519685041*%
%ADD13R,0.035196850393700789X0.019448818897637797*%
%ADD14R,0.017463779527559054X0.011563779527559055*%
%ADD15R,0.023385826771653545X0.060787401574803154*%
%ADD16R,0.058818897637795277X0.013543307086614173*%
%ADD17R,0.054881889763779529X0.062755905511811025*%
%ADD18R,0.025354330708661419X0.033228346456692912*%
%ADD29C,0.0039370078740157488*%
%ADD30R,0.023385826771653545X0.019448818897637797*%
%ADD31R,0.029291338582677167X0.031259842519685041*%
%ADD32R,0.035196850393700789X0.019448818897637797*%
%ADD33R,0.017463779527559054X0.011563779527559055*%
%ADD34R,0.023385826771653545X0.060787401574803154*%
%ADD35R,0.058818897637795277X0.013543307086614173*%
%ADD36R,0.054881889763779529X0.062755905511811025*%
%ADD37R,0.025354330708661419X0.033228346456692912*%
%ADD38C,0.0039370078740157488*%
%ADD39R,0.023385826771653545X0.019448818897637797*%
%ADD40R,0.029291338582677167X0.031259842519685041*%
%ADD41R,0.035196850393700789X0.019448818897637797*%
%ADD42R,0.017463779527559054X0.011563779527559055*%
%ADD43R,0.023385826771653545X0.060787401574803154*%
%ADD44R,0.058818897637795277X0.013543307086614173*%
%ADD45R,0.054881889763779529X0.062755905511811025*%
%ADD46R,0.025354330708661419X0.033228346456692912*%
%ADD47C,0.0039370078740157488*%
%ADD48R,0.023385826771653545X0.019448818897637797*%
%ADD49R,0.029291338582677167X0.031259842519685041*%
%ADD50R,0.035196850393700789X0.019448818897637797*%
%ADD51R,0.017463779527559054X0.011563779527559055*%
%ADD52R,0.023385826771653545X0.060787401574803154*%
%ADD53R,0.058818897637795277X0.013543307086614173*%
%ADD54R,0.054881889763779529X0.062755905511811025*%
%ADD55R,0.025354330708661419X0.033228346456692912*%
%ADD56C,0.0039370078740157488*%
%ADD57R,0.023385826771653545X0.019448818897637797*%
%ADD58R,0.029291338582677167X0.031259842519685041*%
%ADD59R,0.035196850393700789X0.019448818897637797*%
%ADD60R,0.017463779527559054X0.011563779527559055*%
%ADD61R,0.023385826771653545X0.060787401574803154*%
%ADD62R,0.058818897637795277X0.013543307086614173*%
%ADD63R,0.054881889763779529X0.062755905511811025*%
%ADD64R,0.025354330708661419X0.033228346456692912*%
%ADD65C,0.0039370078740157488*%
%ADD66R,0.023385826771653545X0.019448818897637797*%
%ADD67R,0.029291338582677167X0.031259842519685041*%
%ADD68R,0.035196850393700789X0.019448818897637797*%
%ADD69R,0.017463779527559054X0.011563779527559055*%
%ADD70R,0.023385826771653545X0.060787401574803154*%
%ADD71R,0.058818897637795277X0.013543307086614173*%
%ADD72R,0.054881889763779529X0.062755905511811025*%
%ADD73R,0.025354330708661419X0.033228346456692912*%
%ADD74C,0.0039370078740157488*%
%ADD75R,0.023385826771653545X0.019448818897637797*%
%ADD76R,0.029291338582677167X0.031259842519685041*%
%ADD77R,0.035196850393700789X0.019448818897637797*%
%ADD78R,0.017463779527559054X0.011563779527559055*%
%ADD79R,0.023385826771653545X0.060787401574803154*%
%ADD80R,0.058818897637795277X0.013543307086614173*%
%ADD81R,0.054881889763779529X0.062755905511811025*%
%ADD82R,0.025354330708661419X0.033228346456692912*%
%ADD83C,0.0039370078740157488*%
%ADD84R,0.023385826771653545X0.019448818897637797*%
%ADD85R,0.029291338582677167X0.031259842519685041*%
%ADD86R,0.035196850393700789X0.019448818897637797*%
%ADD87R,0.017463779527559054X0.011563779527559055*%
%ADD88R,0.023385826771653545X0.060787401574803154*%
%ADD89R,0.058818897637795277X0.013543307086614173*%
%ADD90R,0.054881889763779529X0.062755905511811025*%
%ADD91R,0.025354330708661419X0.033228346456692912*%
%ADD92C,0.0039370078740157488*%
%ADD93R,0.023385826771653545X0.019448818897637797*%
%ADD94R,0.029291338582677167X0.031259842519685041*%
%ADD95R,0.035196850393700789X0.019448818897637797*%
%ADD96R,0.017463779527559054X0.011563779527559055*%
%ADD97R,0.023385826771653545X0.060787401574803154*%
%ADD98R,0.058818897637795277X0.013543307086614173*%
%ADD99R,0.054881889763779529X0.062755905511811025*%
%ADD100R,0.025354330708661419X0.033228346456692912*%
%ADD101C,0.0039370078740157488*%
%ADD102R,0.023385826771653545X0.019448818897637797*%
%ADD103R,0.029291338582677167X0.031259842519685041*%
%ADD104R,0.035196850393700789X0.019448818897637797*%
%ADD105R,0.017463779527559054X0.011563779527559055*%
%ADD106R,0.023385826771653545X0.060787401574803154*%
%ADD107R,0.058818897637795277X0.013543307086614173*%
%ADD108R,0.054881889763779529X0.062755905511811025*%
%ADD109R,0.025354330708661419X0.033228346456692912*%
%ADD110C,0.0039370078740157488*%
%ADD111R,0.023385826771653545X0.019448818897637797*%
%ADD112R,0.029291338582677167X0.031259842519685041*%
%ADD113R,0.035196850393700789X0.019448818897637797*%
%ADD114R,0.017463779527559054X0.011563779527559055*%
%ADD115R,0.023385826771653545X0.060787401574803154*%
%ADD116R,0.058818897637795277X0.013543307086614173*%
%ADD117R,0.054881889763779529X0.062755905511811025*%
%ADD118R,0.025354330708661419X0.033228346456692912*%
%ADD119C,0.0039370078740157488*%
%ADD120R,0.023385826771653545X0.019448818897637797*%
%ADD121R,0.029291338582677167X0.031259842519685041*%
%ADD122R,0.035196850393700789X0.019448818897637797*%
%ADD123R,0.017463779527559054X0.011563779527559055*%
%ADD124R,0.023385826771653545X0.060787401574803154*%
%ADD125R,0.058818897637795277X0.013543307086614173*%
%ADD126R,0.054881889763779529X0.062755905511811025*%
%ADD127R,0.025354330708661419X0.033228346456692912*%
G01G01*
D10*
D11*
X-0001387795Y0001712598D02*
X0000769685Y0000108267D03*
X0000726377Y0000108267D03*
D12*
X0001141732Y0000196850D03*
X0001141732Y0000255905D03*
D13*
X0000507873Y0000118110D03*
X0000507873Y0000177165D03*
D14*
X0000938935Y0000488203D03*
X0000938935Y0000448803D03*
X0000994135Y0000488203D03*
X0000938935Y0000468503D03*
X0000994135Y0000448803D03*
D15*
X0000762007Y0000384842D03*
X0000712007Y0000384842D03*
X0000662007Y0000384842D03*
X0000612007Y0000384842D03*
X0000612007Y0000172244D03*
X0000662007Y0000172244D03*
X0000712007Y0000172244D03*
X0000762007Y0000172244D03*
D16*
X0001066929Y0000104625D03*
X0001066929Y0000129625D03*
X0001066929Y0000154625D03*
X0001066929Y0000179625D03*
X0001066929Y0000204625D03*
X0001066929Y0000229625D03*
X0001066929Y0000254625D03*
X0001066929Y0000279625D03*
X0001066929Y0000304625D03*
X0001066929Y0000329625D03*
X0001066929Y0000354625D03*
X0001066929Y0000379625D03*
X0000862204Y0000379625D03*
X0000862204Y0000354625D03*
X0000862204Y0000329625D03*
X0000862204Y0000304625D03*
X0000862204Y0000279625D03*
X0000862204Y0000254625D03*
X0000862204Y0000229625D03*
X0000862204Y0000204625D03*
X0000862204Y0000179625D03*
X0000862204Y0000154625D03*
X0000862204Y0000129625D03*
X0000862204Y0000104625D03*
D17*
X0000279133Y0000135826D03*
X0000279133Y0000419291D03*
X0000397244Y0000419291D03*
X0000397244Y0000135826D03*
D18*
X0000488976Y0000313779D03*
X0000522440Y0000313779D03*
X0000522440Y0000256692D03*
X0000488976Y0000256692D03*
G04 next file*
G04 #@! TF.FileFunction,Paste,Top*
G04 Gerber Fmt 4.6, Leading zero omitted, Abs format (unit mm)*
G04 Created by KiCad (PCBNEW 4.0.6) date 2017 June 28, Wednesday 04:06:12*
G01G01*
G04 APERTURE LIST*
G04 APERTURE END LIST*
D29*
D30*
X0000285433Y0001712598D02*
X0002442913Y0000108267D03*
X0002399606Y0000108267D03*
D31*
X0002814960Y0000196850D03*
X0002814960Y0000255905D03*
D32*
X0002181102Y0000118110D03*
X0002181102Y0000177165D03*
D33*
X0002612163Y0000488203D03*
X0002612163Y0000448803D03*
X0002667363Y0000488203D03*
X0002612163Y0000468503D03*
X0002667363Y0000448803D03*
D34*
X0002435236Y0000384842D03*
X0002385236Y0000384842D03*
X0002335236Y0000384842D03*
X0002285236Y0000384842D03*
X0002285236Y0000172244D03*
X0002335236Y0000172244D03*
X0002385236Y0000172244D03*
X0002435236Y0000172244D03*
D35*
X0002740157Y0000104625D03*
X0002740157Y0000129625D03*
X0002740157Y0000154625D03*
X0002740157Y0000179625D03*
X0002740157Y0000204625D03*
X0002740157Y0000229625D03*
X0002740157Y0000254625D03*
X0002740157Y0000279625D03*
X0002740157Y0000304625D03*
X0002740157Y0000329625D03*
X0002740157Y0000354625D03*
X0002740157Y0000379625D03*
X0002535433Y0000379625D03*
X0002535433Y0000354625D03*
X0002535433Y0000329625D03*
X0002535433Y0000304625D03*
X0002535433Y0000279625D03*
X0002535433Y0000254625D03*
X0002535433Y0000229625D03*
X0002535433Y0000204625D03*
X0002535433Y0000179625D03*
X0002535433Y0000154625D03*
X0002535433Y0000129625D03*
X0002535433Y0000104625D03*
D36*
X0001952362Y0000135826D03*
X0001952362Y0000419291D03*
X0002070472Y0000419291D03*
X0002070472Y0000135826D03*
D37*
X0002162204Y0000313779D03*
X0002195669Y0000313779D03*
X0002195669Y0000256692D03*
X0002162204Y0000256692D03*
G04 next file*
G04 #@! TF.FileFunction,Paste,Top*
G04 Gerber Fmt 4.6, Leading zero omitted, Abs format (unit mm)*
G04 Created by KiCad (PCBNEW 4.0.6) date 2017 June 28, Wednesday 04:06:12*
G01G01*
G04 APERTURE LIST*
G04 APERTURE END LIST*
D38*
D39*
X-0001387795Y0002362204D02*
X0000769685Y0000757874D03*
X0000726377Y0000757874D03*
D40*
X0001141732Y0000846456D03*
X0001141732Y0000905511D03*
D41*
X0000507873Y0000767716D03*
X0000507873Y0000826771D03*
D42*
X0000938935Y0001137810D03*
X0000938935Y0001098410D03*
X0000994135Y0001137810D03*
X0000938935Y0001118110D03*
X0000994135Y0001098410D03*
D43*
X0000762007Y0001034448D03*
X0000712007Y0001034448D03*
X0000662007Y0001034448D03*
X0000612007Y0001034448D03*
X0000612007Y0000821850D03*
X0000662007Y0000821850D03*
X0000712007Y0000821850D03*
X0000762007Y0000821850D03*
D44*
X0001066929Y0000754232D03*
X0001066929Y0000779232D03*
X0001066929Y0000804232D03*
X0001066929Y0000829232D03*
X0001066929Y0000854232D03*
X0001066929Y0000879232D03*
X0001066929Y0000904232D03*
X0001066929Y0000929232D03*
X0001066929Y0000954232D03*
X0001066929Y0000979232D03*
X0001066929Y0001004232D03*
X0001066929Y0001029232D03*
X0000862204Y0001029232D03*
X0000862204Y0001004232D03*
X0000862204Y0000979232D03*
X0000862204Y0000954232D03*
X0000862204Y0000929232D03*
X0000862204Y0000904232D03*
X0000862204Y0000879232D03*
X0000862204Y0000854232D03*
X0000862204Y0000829232D03*
X0000862204Y0000804232D03*
X0000862204Y0000779232D03*
X0000862204Y0000754232D03*
D45*
X0000279133Y0000785433D03*
X0000279133Y0001068897D03*
X0000397244Y0001068897D03*
X0000397244Y0000785433D03*
D46*
X0000488976Y0000963385D03*
X0000522440Y0000963385D03*
X0000522440Y0000906299D03*
X0000488976Y0000906299D03*
G04 next file*
G04 #@! TF.FileFunction,Paste,Top*
G04 Gerber Fmt 4.6, Leading zero omitted, Abs format (unit mm)*
G04 Created by KiCad (PCBNEW 4.0.6) date 2017 June 28, Wednesday 04:06:12*
G01G01*
G04 APERTURE LIST*
G04 APERTURE END LIST*
D47*
D48*
X0000285433Y0002362204D02*
X0002442913Y0000757874D03*
X0002399606Y0000757874D03*
D49*
X0002814960Y0000846456D03*
X0002814960Y0000905511D03*
D50*
X0002181102Y0000767716D03*
X0002181102Y0000826771D03*
D51*
X0002612163Y0001137810D03*
X0002612163Y0001098410D03*
X0002667363Y0001137810D03*
X0002612163Y0001118110D03*
X0002667363Y0001098410D03*
D52*
X0002435236Y0001034448D03*
X0002385236Y0001034448D03*
X0002335236Y0001034448D03*
X0002285236Y0001034448D03*
X0002285236Y0000821850D03*
X0002335236Y0000821850D03*
X0002385236Y0000821850D03*
X0002435236Y0000821850D03*
D53*
X0002740157Y0000754232D03*
X0002740157Y0000779232D03*
X0002740157Y0000804232D03*
X0002740157Y0000829232D03*
X0002740157Y0000854232D03*
X0002740157Y0000879232D03*
X0002740157Y0000904232D03*
X0002740157Y0000929232D03*
X0002740157Y0000954232D03*
X0002740157Y0000979232D03*
X0002740157Y0001004232D03*
X0002740157Y0001029232D03*
X0002535433Y0001029232D03*
X0002535433Y0001004232D03*
X0002535433Y0000979232D03*
X0002535433Y0000954232D03*
X0002535433Y0000929232D03*
X0002535433Y0000904232D03*
X0002535433Y0000879232D03*
X0002535433Y0000854232D03*
X0002535433Y0000829232D03*
X0002535433Y0000804232D03*
X0002535433Y0000779232D03*
X0002535433Y0000754232D03*
D54*
X0001952362Y0000785433D03*
X0001952362Y0001068897D03*
X0002070472Y0001068897D03*
X0002070472Y0000785433D03*
D55*
X0002162204Y0000963385D03*
X0002195669Y0000963385D03*
X0002195669Y0000906299D03*
X0002162204Y0000906299D03*
G04 next file*
G04 #@! TF.FileFunction,Paste,Top*
G04 Gerber Fmt 4.6, Leading zero omitted, Abs format (unit mm)*
G04 Created by KiCad (PCBNEW 4.0.6) date 2017 June 28, Wednesday 04:06:12*
G01G01*
G04 APERTURE LIST*
G04 APERTURE END LIST*
D56*
D57*
X-0001387795Y0003011811D02*
X0000769685Y0001407480D03*
X0000726377Y0001407480D03*
D58*
X0001141732Y0001496062D03*
X0001141732Y0001555118D03*
D59*
X0000507873Y0001417322D03*
X0000507873Y0001476377D03*
D60*
X0000938935Y0001787416D03*
X0000938935Y0001748016D03*
X0000994135Y0001787416D03*
X0000938935Y0001767716D03*
X0000994135Y0001748016D03*
D61*
X0000762007Y0001684055D03*
X0000712007Y0001684055D03*
X0000662007Y0001684055D03*
X0000612007Y0001684055D03*
X0000612007Y0001471456D03*
X0000662007Y0001471456D03*
X0000712007Y0001471456D03*
X0000762007Y0001471456D03*
D62*
X0001066929Y0001403838D03*
X0001066929Y0001428838D03*
X0001066929Y0001453838D03*
X0001066929Y0001478838D03*
X0001066929Y0001503838D03*
X0001066929Y0001528838D03*
X0001066929Y0001553838D03*
X0001066929Y0001578838D03*
X0001066929Y0001603838D03*
X0001066929Y0001628838D03*
X0001066929Y0001653838D03*
X0001066929Y0001678838D03*
X0000862204Y0001678838D03*
X0000862204Y0001653838D03*
X0000862204Y0001628838D03*
X0000862204Y0001603838D03*
X0000862204Y0001578838D03*
X0000862204Y0001553838D03*
X0000862204Y0001528838D03*
X0000862204Y0001503838D03*
X0000862204Y0001478838D03*
X0000862204Y0001453838D03*
X0000862204Y0001428838D03*
X0000862204Y0001403838D03*
D63*
X0000279133Y0001435039D03*
X0000279133Y0001718503D03*
X0000397244Y0001718503D03*
X0000397244Y0001435039D03*
D64*
X0000488976Y0001612992D03*
X0000522440Y0001612992D03*
X0000522440Y0001555905D03*
X0000488976Y0001555905D03*
G04 next file*
G04 #@! TF.FileFunction,Paste,Top*
G04 Gerber Fmt 4.6, Leading zero omitted, Abs format (unit mm)*
G04 Created by KiCad (PCBNEW 4.0.6) date 2017 June 28, Wednesday 04:06:12*
G01G01*
G04 APERTURE LIST*
G04 APERTURE END LIST*
D65*
D66*
X-0001387795Y0003661417D02*
X0000769685Y0002057086D03*
X0000726377Y0002057086D03*
D67*
X0001141732Y0002145669D03*
X0001141732Y0002204724D03*
D68*
X0000507873Y0002066929D03*
X0000507873Y0002125984D03*
D69*
X0000938935Y0002437022D03*
X0000938935Y0002397622D03*
X0000994135Y0002437022D03*
X0000938935Y0002417322D03*
X0000994135Y0002397622D03*
D70*
X0000762007Y0002333661D03*
X0000712007Y0002333661D03*
X0000662007Y0002333661D03*
X0000612007Y0002333661D03*
X0000612007Y0002121062D03*
X0000662007Y0002121062D03*
X0000712007Y0002121062D03*
X0000762007Y0002121062D03*
D71*
X0001066929Y0002053444D03*
X0001066929Y0002078444D03*
X0001066929Y0002103444D03*
X0001066929Y0002128444D03*
X0001066929Y0002153444D03*
X0001066929Y0002178444D03*
X0001066929Y0002203444D03*
X0001066929Y0002228444D03*
X0001066929Y0002253444D03*
X0001066929Y0002278444D03*
X0001066929Y0002303444D03*
X0001066929Y0002328444D03*
X0000862204Y0002328444D03*
X0000862204Y0002303444D03*
X0000862204Y0002278444D03*
X0000862204Y0002253444D03*
X0000862204Y0002228444D03*
X0000862204Y0002203444D03*
X0000862204Y0002178444D03*
X0000862204Y0002153444D03*
X0000862204Y0002128444D03*
X0000862204Y0002103444D03*
X0000862204Y0002078444D03*
X0000862204Y0002053444D03*
D72*
X0000279133Y0002084645D03*
X0000279133Y0002368110D03*
X0000397244Y0002368110D03*
X0000397244Y0002084645D03*
D73*
X0000488976Y0002262598D03*
X0000522440Y0002262598D03*
X0000522440Y0002205511D03*
X0000488976Y0002205511D03*
G04 next file*
G04 #@! TF.FileFunction,Paste,Top*
G04 Gerber Fmt 4.6, Leading zero omitted, Abs format (unit mm)*
G04 Created by KiCad (PCBNEW 4.0.6) date 2017 June 28, Wednesday 04:06:12*
G01G01*
G04 APERTURE LIST*
G04 APERTURE END LIST*
D74*
D75*
X-0001387795Y0004311023D02*
X0000769685Y0002706692D03*
X0000726377Y0002706692D03*
D76*
X0001141732Y0002795275D03*
X0001141732Y0002854330D03*
D77*
X0000507873Y0002716535D03*
X0000507873Y0002775590D03*
D78*
X0000938935Y0003086629D03*
X0000938935Y0003047229D03*
X0000994135Y0003086629D03*
X0000938935Y0003066929D03*
X0000994135Y0003047229D03*
D79*
X0000762007Y0002983267D03*
X0000712007Y0002983267D03*
X0000662007Y0002983267D03*
X0000612007Y0002983267D03*
X0000612007Y0002770669D03*
X0000662007Y0002770669D03*
X0000712007Y0002770669D03*
X0000762007Y0002770669D03*
D80*
X0001066929Y0002703051D03*
X0001066929Y0002728051D03*
X0001066929Y0002753051D03*
X0001066929Y0002778051D03*
X0001066929Y0002803051D03*
X0001066929Y0002828051D03*
X0001066929Y0002853051D03*
X0001066929Y0002878051D03*
X0001066929Y0002903051D03*
X0001066929Y0002928051D03*
X0001066929Y0002953051D03*
X0001066929Y0002978051D03*
X0000862204Y0002978051D03*
X0000862204Y0002953051D03*
X0000862204Y0002928051D03*
X0000862204Y0002903051D03*
X0000862204Y0002878051D03*
X0000862204Y0002853051D03*
X0000862204Y0002828051D03*
X0000862204Y0002803051D03*
X0000862204Y0002778051D03*
X0000862204Y0002753051D03*
X0000862204Y0002728051D03*
X0000862204Y0002703051D03*
D81*
X0000279133Y0002734251D03*
X0000279133Y0003017716D03*
X0000397244Y0003017716D03*
X0000397244Y0002734251D03*
D82*
X0000488976Y0002912204D03*
X0000522440Y0002912204D03*
X0000522440Y0002855118D03*
X0000488976Y0002855118D03*
G04 next file*
G04 #@! TF.FileFunction,Paste,Top*
G04 Gerber Fmt 4.6, Leading zero omitted, Abs format (unit mm)*
G04 Created by KiCad (PCBNEW 4.0.6) date 2017 June 28, Wednesday 04:06:12*
G01G01*
G04 APERTURE LIST*
G04 APERTURE END LIST*
D83*
D84*
X-0001387795Y0004960629D02*
X0000769685Y0003356299D03*
X0000726377Y0003356299D03*
D85*
X0001141732Y0003444881D03*
X0001141732Y0003503937D03*
D86*
X0000507873Y0003366141D03*
X0000507873Y0003425196D03*
D87*
X0000938935Y0003736235D03*
X0000938935Y0003696835D03*
X0000994135Y0003736235D03*
X0000938935Y0003716535D03*
X0000994135Y0003696835D03*
D88*
X0000762007Y0003632874D03*
X0000712007Y0003632874D03*
X0000662007Y0003632874D03*
X0000612007Y0003632874D03*
X0000612007Y0003420275D03*
X0000662007Y0003420275D03*
X0000712007Y0003420275D03*
X0000762007Y0003420275D03*
D89*
X0001066929Y0003352657D03*
X0001066929Y0003377657D03*
X0001066929Y0003402657D03*
X0001066929Y0003427657D03*
X0001066929Y0003452657D03*
X0001066929Y0003477657D03*
X0001066929Y0003502657D03*
X0001066929Y0003527657D03*
X0001066929Y0003552657D03*
X0001066929Y0003577657D03*
X0001066929Y0003602657D03*
X0001066929Y0003627657D03*
X0000862204Y0003627657D03*
X0000862204Y0003602657D03*
X0000862204Y0003577657D03*
X0000862204Y0003552657D03*
X0000862204Y0003527657D03*
X0000862204Y0003502657D03*
X0000862204Y0003477657D03*
X0000862204Y0003452657D03*
X0000862204Y0003427657D03*
X0000862204Y0003402657D03*
X0000862204Y0003377657D03*
X0000862204Y0003352657D03*
D90*
X0000279133Y0003383858D03*
X0000279133Y0003667322D03*
X0000397244Y0003667322D03*
X0000397244Y0003383858D03*
D91*
X0000488976Y0003561811D03*
X0000522440Y0003561811D03*
X0000522440Y0003504724D03*
X0000488976Y0003504724D03*
G04 next file*
G04 #@! TF.FileFunction,Paste,Top*
G04 Gerber Fmt 4.6, Leading zero omitted, Abs format (unit mm)*
G04 Created by KiCad (PCBNEW 4.0.6) date 2017 June 28, Wednesday 04:06:12*
G01G01*
G04 APERTURE LIST*
G04 APERTURE END LIST*
D92*
D93*
X0000285433Y0003011811D02*
X0002442913Y0001407480D03*
X0002399606Y0001407480D03*
D94*
X0002814960Y0001496062D03*
X0002814960Y0001555118D03*
D95*
X0002181102Y0001417322D03*
X0002181102Y0001476377D03*
D96*
X0002612163Y0001787416D03*
X0002612163Y0001748016D03*
X0002667363Y0001787416D03*
X0002612163Y0001767716D03*
X0002667363Y0001748016D03*
D97*
X0002435236Y0001684055D03*
X0002385236Y0001684055D03*
X0002335236Y0001684055D03*
X0002285236Y0001684055D03*
X0002285236Y0001471456D03*
X0002335236Y0001471456D03*
X0002385236Y0001471456D03*
X0002435236Y0001471456D03*
D98*
X0002740157Y0001403838D03*
X0002740157Y0001428838D03*
X0002740157Y0001453838D03*
X0002740157Y0001478838D03*
X0002740157Y0001503838D03*
X0002740157Y0001528838D03*
X0002740157Y0001553838D03*
X0002740157Y0001578838D03*
X0002740157Y0001603838D03*
X0002740157Y0001628838D03*
X0002740157Y0001653838D03*
X0002740157Y0001678838D03*
X0002535433Y0001678838D03*
X0002535433Y0001653838D03*
X0002535433Y0001628838D03*
X0002535433Y0001603838D03*
X0002535433Y0001578838D03*
X0002535433Y0001553838D03*
X0002535433Y0001528838D03*
X0002535433Y0001503838D03*
X0002535433Y0001478838D03*
X0002535433Y0001453838D03*
X0002535433Y0001428838D03*
X0002535433Y0001403838D03*
D99*
X0001952362Y0001435039D03*
X0001952362Y0001718503D03*
X0002070472Y0001718503D03*
X0002070472Y0001435039D03*
D100*
X0002162204Y0001612992D03*
X0002195669Y0001612992D03*
X0002195669Y0001555905D03*
X0002162204Y0001555905D03*
G04 next file*
G04 #@! TF.FileFunction,Paste,Top*
G04 Gerber Fmt 4.6, Leading zero omitted, Abs format (unit mm)*
G04 Created by KiCad (PCBNEW 4.0.6) date 2017 June 28, Wednesday 04:06:12*
G01G01*
G04 APERTURE LIST*
G04 APERTURE END LIST*
D101*
D102*
X0000285433Y0003661417D02*
X0002442913Y0002057086D03*
X0002399606Y0002057086D03*
D103*
X0002814960Y0002145669D03*
X0002814960Y0002204724D03*
D104*
X0002181102Y0002066929D03*
X0002181102Y0002125984D03*
D105*
X0002612163Y0002437022D03*
X0002612163Y0002397622D03*
X0002667363Y0002437022D03*
X0002612163Y0002417322D03*
X0002667363Y0002397622D03*
D106*
X0002435236Y0002333661D03*
X0002385236Y0002333661D03*
X0002335236Y0002333661D03*
X0002285236Y0002333661D03*
X0002285236Y0002121062D03*
X0002335236Y0002121062D03*
X0002385236Y0002121062D03*
X0002435236Y0002121062D03*
D107*
X0002740157Y0002053444D03*
X0002740157Y0002078444D03*
X0002740157Y0002103444D03*
X0002740157Y0002128444D03*
X0002740157Y0002153444D03*
X0002740157Y0002178444D03*
X0002740157Y0002203444D03*
X0002740157Y0002228444D03*
X0002740157Y0002253444D03*
X0002740157Y0002278444D03*
X0002740157Y0002303444D03*
X0002740157Y0002328444D03*
X0002535433Y0002328444D03*
X0002535433Y0002303444D03*
X0002535433Y0002278444D03*
X0002535433Y0002253444D03*
X0002535433Y0002228444D03*
X0002535433Y0002203444D03*
X0002535433Y0002178444D03*
X0002535433Y0002153444D03*
X0002535433Y0002128444D03*
X0002535433Y0002103444D03*
X0002535433Y0002078444D03*
X0002535433Y0002053444D03*
D108*
X0001952362Y0002084645D03*
X0001952362Y0002368110D03*
X0002070472Y0002368110D03*
X0002070472Y0002084645D03*
D109*
X0002162204Y0002262598D03*
X0002195669Y0002262598D03*
X0002195669Y0002205511D03*
X0002162204Y0002205511D03*
G04 next file*
G04 #@! TF.FileFunction,Paste,Top*
G04 Gerber Fmt 4.6, Leading zero omitted, Abs format (unit mm)*
G04 Created by KiCad (PCBNEW 4.0.6) date 2017 June 28, Wednesday 04:06:12*
G01G01*
G04 APERTURE LIST*
G04 APERTURE END LIST*
D110*
D111*
X0000285433Y0004311023D02*
X0002442913Y0002706692D03*
X0002399606Y0002706692D03*
D112*
X0002814960Y0002795275D03*
X0002814960Y0002854330D03*
D113*
X0002181102Y0002716535D03*
X0002181102Y0002775590D03*
D114*
X0002612163Y0003086629D03*
X0002612163Y0003047229D03*
X0002667363Y0003086629D03*
X0002612163Y0003066929D03*
X0002667363Y0003047229D03*
D115*
X0002435236Y0002983267D03*
X0002385236Y0002983267D03*
X0002335236Y0002983267D03*
X0002285236Y0002983267D03*
X0002285236Y0002770669D03*
X0002335236Y0002770669D03*
X0002385236Y0002770669D03*
X0002435236Y0002770669D03*
D116*
X0002740157Y0002703051D03*
X0002740157Y0002728051D03*
X0002740157Y0002753051D03*
X0002740157Y0002778051D03*
X0002740157Y0002803051D03*
X0002740157Y0002828051D03*
X0002740157Y0002853051D03*
X0002740157Y0002878051D03*
X0002740157Y0002903051D03*
X0002740157Y0002928051D03*
X0002740157Y0002953051D03*
X0002740157Y0002978051D03*
X0002535433Y0002978051D03*
X0002535433Y0002953051D03*
X0002535433Y0002928051D03*
X0002535433Y0002903051D03*
X0002535433Y0002878051D03*
X0002535433Y0002853051D03*
X0002535433Y0002828051D03*
X0002535433Y0002803051D03*
X0002535433Y0002778051D03*
X0002535433Y0002753051D03*
X0002535433Y0002728051D03*
X0002535433Y0002703051D03*
D117*
X0001952362Y0002734251D03*
X0001952362Y0003017716D03*
X0002070472Y0003017716D03*
X0002070472Y0002734251D03*
D118*
X0002162204Y0002912204D03*
X0002195669Y0002912204D03*
X0002195669Y0002855118D03*
X0002162204Y0002855118D03*
G04 next file*
G04 #@! TF.FileFunction,Paste,Top*
G04 Gerber Fmt 4.6, Leading zero omitted, Abs format (unit mm)*
G04 Created by KiCad (PCBNEW 4.0.6) date 2017 June 28, Wednesday 04:06:12*
G01G01*
G04 APERTURE LIST*
G04 APERTURE END LIST*
D119*
D120*
X0000285433Y0004960629D02*
X0002442913Y0003356299D03*
X0002399606Y0003356299D03*
D121*
X0002814960Y0003444881D03*
X0002814960Y0003503937D03*
D122*
X0002181102Y0003366141D03*
X0002181102Y0003425196D03*
D123*
X0002612163Y0003736235D03*
X0002612163Y0003696835D03*
X0002667363Y0003736235D03*
X0002612163Y0003716535D03*
X0002667363Y0003696835D03*
D124*
X0002435236Y0003632874D03*
X0002385236Y0003632874D03*
X0002335236Y0003632874D03*
X0002285236Y0003632874D03*
X0002285236Y0003420275D03*
X0002335236Y0003420275D03*
X0002385236Y0003420275D03*
X0002435236Y0003420275D03*
D125*
X0002740157Y0003352657D03*
X0002740157Y0003377657D03*
X0002740157Y0003402657D03*
X0002740157Y0003427657D03*
X0002740157Y0003452657D03*
X0002740157Y0003477657D03*
X0002740157Y0003502657D03*
X0002740157Y0003527657D03*
X0002740157Y0003552657D03*
X0002740157Y0003577657D03*
X0002740157Y0003602657D03*
X0002740157Y0003627657D03*
X0002535433Y0003627657D03*
X0002535433Y0003602657D03*
X0002535433Y0003577657D03*
X0002535433Y0003552657D03*
X0002535433Y0003527657D03*
X0002535433Y0003502657D03*
X0002535433Y0003477657D03*
X0002535433Y0003452657D03*
X0002535433Y0003427657D03*
X0002535433Y0003402657D03*
X0002535433Y0003377657D03*
X0002535433Y0003352657D03*
D126*
X0001952362Y0003383858D03*
X0001952362Y0003667322D03*
X0002070472Y0003667322D03*
X0002070472Y0003383858D03*
D127*
X0002162204Y0003561811D03*
X0002195669Y0003561811D03*
X0002195669Y0003504724D03*
X0002162204Y0003504724D03*
M02*