%
M48
METRIC,000.000
T01C0.50
%
T01
X023070Y014750
X022070Y014750
X021070Y014750
X020070Y014750
X019070Y014750
X018070Y014750
X017643Y016250
X018643Y016250
X019643Y016250
X020643Y016250
X021643Y016250
X022643Y016250
X040750Y004214
X040750Y005214
X040750Y006214
X040750Y007214
X040750Y008214
X040750Y009214
X040750Y010214
X042250Y009963
X042250Y008963
X042250Y007963
X042250Y006963
X042250Y005963
X042250Y004963
X023070Y031250
X022070Y031250
X021070Y031250
X020070Y031250
X019070Y031250
X018070Y031250
X017643Y032750
X018643Y032750
X019643Y032750
X020643Y032750
X021643Y032750
X022643Y032750
X040750Y020714
X040750Y021714
X040750Y022714
X040750Y023714
X040750Y024714
X040750Y025714
X040750Y026714
X042250Y026463
X042250Y025463
X042250Y024463
X042250Y023463
X042250Y022463
X042250Y021463
X023070Y064250
X022070Y064250
X021070Y064250
X020070Y064250
X019070Y064250
X018070Y064250
X017643Y065750
X018643Y065750
X019643Y065750
X020643Y065750
X021643Y065750
X022643Y065750
X040750Y053714
X040750Y054714
X040750Y055714
X040750Y056714
X040750Y057714
X040750Y058714
X040750Y059714
X042250Y059463
X042250Y058463
X042250Y057463
X042250Y056463
X042250Y055463
X042250Y054463
X023070Y080750
X022070Y080750
X021070Y080750
X020070Y080750
X019070Y080750
X018070Y080750
X017643Y082250
X018643Y082250
X019643Y082250
X020643Y082250
X021643Y082250
X022643Y082250
X040750Y070214
X040750Y071214
X040750Y072214
X040750Y073214
X040750Y074214
X040750Y075214
X040750Y076214
X042250Y075963
X042250Y074963
X042250Y073963
X042250Y072963
X042250Y071963
X042250Y070963
X040750Y037214
X040750Y038214
X040750Y039214
X040750Y040214
X040750Y041214
X040750Y042214
X040750Y043214
X042250Y042963
X042250Y041963
X042250Y040963
X042250Y039963
X042250Y038963
X042250Y037963
X023070Y047750
X022070Y047750
X021070Y047750
X020070Y047750
X019070Y047750
X018070Y047750
X017643Y049250
X018643Y049250
X019643Y049250
X020643Y049250
X021643Y049250
X022643Y049250
X065570Y014750
X064570Y014750
X063570Y014750
X062570Y014750
X061570Y014750
X060570Y014750
X060143Y016250
X061143Y016250
X062143Y016250
X063143Y016250
X064143Y016250
X065143Y016250
X065570Y031250
X064570Y031250
X063570Y031250
X062570Y031250
X061570Y031250
X060570Y031250
X060143Y032750
X061143Y032750
X062143Y032750
X063143Y032750
X064143Y032750
X065143Y032750
X065570Y064250
X064570Y064250
X063570Y064250
X062570Y064250
X061570Y064250
X060570Y064250
X060143Y065750
X061143Y065750
X062143Y065750
X063143Y065750
X064143Y065750
X065143Y065750
X065570Y080750
X064570Y080750
X063570Y080750
X062570Y080750
X061570Y080750
X060570Y080750
X060143Y082250
X061143Y082250
X062143Y082250
X063143Y082250
X064143Y082250
X065143Y082250
X040750Y086714
X040750Y087714
X040750Y088714
X040750Y089714
X040750Y090714
X040750Y091714
X040750Y092714
X042250Y092463
X042250Y091463
X042250Y090463
X042250Y089463
X042250Y088463
X042250Y087463
X065570Y047750
X064570Y047750
X063570Y047750
X062570Y047750
X061570Y047750
X060570Y047750
X060143Y049250
X061143Y049250
X062143Y049250
X063143Y049250
X064143Y049250
X065143Y049250
X023070Y014750
X022070Y014750
X021070Y014750
X020070Y014750
X019070Y014750
X018070Y014750
X017643Y016250
X018643Y016250
X019643Y016250
X020643Y016250
X021643Y016250
X022643Y016250
X040750Y004214
X040750Y005214
X040750Y006214
X040750Y007214
X040750Y008214
X040750Y009214
X040750Y010214
X042250Y009963
X042250Y008963
X042250Y007963
X042250Y006963
X042250Y005963
X042250Y004963
X023070Y031250
X022070Y031250
X021070Y031250
X020070Y031250
X019070Y031250
X018070Y031250
X017643Y032750
X018643Y032750
X019643Y032750
X020643Y032750
X021643Y032750
X022643Y032750
X040750Y020714
X040750Y021714
X040750Y022714
X040750Y023714
X040750Y024714
X040750Y025714
X040750Y026714
X042250Y026463
X042250Y025463
X042250Y024463
X042250Y023463
X042250Y022463
X042250Y021463
X023070Y064250
X022070Y064250
X021070Y064250
X020070Y064250
X019070Y064250
X018070Y064250
X017643Y065750
X018643Y065750
X019643Y065750
X020643Y065750
X021643Y065750
X022643Y065750
X040750Y053714
X040750Y054714
X040750Y055714
X040750Y056714
X040750Y057714
X040750Y058714
X040750Y059714
X042250Y059463
X042250Y058463
X042250Y057463
X042250Y056463
X042250Y055463
X042250Y054463
X023070Y080750
X022070Y080750
X021070Y080750
X020070Y080750
X019070Y080750
X018070Y080750
X017643Y082250
X018643Y082250
X019643Y082250
X020643Y082250
X021643Y082250
X022643Y082250
X040750Y070214
X040750Y071214
X040750Y072214
X040750Y073214
X040750Y074214
X040750Y075214
X040750Y076214
X042250Y075963
X042250Y074963
X042250Y073963
X042250Y072963
X042250Y071963
X042250Y070963
X040750Y037214
X040750Y038214
X040750Y039214
X040750Y040214
X040750Y041214
X040750Y042214
X040750Y043214
X042250Y042963
X042250Y041963
X042250Y040963
X042250Y039963
X042250Y038963
X042250Y037963
X023070Y047750
X022070Y047750
X021070Y047750
X020070Y047750
X019070Y047750
X018070Y047750
X017643Y049250
X018643Y049250
X019643Y049250
X020643Y049250
X021643Y049250
X022643Y049250
X065570Y014750
X064570Y014750
X063570Y014750
X062570Y014750
X061570Y014750
X060570Y014750
X060143Y016250
X061143Y016250
X062143Y016250
X063143Y016250
X064143Y016250
X065143Y016250
X065570Y031250
X064570Y031250
X063570Y031250
X062570Y031250
X061570Y031250
X060570Y031250
X060143Y032750
X061143Y032750
X062143Y032750
X063143Y032750
X064143Y032750
X065143Y032750
X065570Y064250
X064570Y064250
X063570Y064250
X062570Y064250
X061570Y064250
X060570Y064250
X060143Y065750
X061143Y065750
X062143Y065750
X063143Y065750
X064143Y065750
X065143Y065750
X065570Y080750
X064570Y080750
X063570Y080750
X062570Y080750
X061570Y080750
X060570Y080750
X060143Y082250
X061143Y082250
X062143Y082250
X063143Y082250
X064143Y082250
X065143Y082250
X040750Y086714
X040750Y087714
X040750Y088714
X040750Y089714
X040750Y090714
X040750Y091714
X040750Y092714
X042250Y092463
X042250Y091463
X042250Y090463
X042250Y089463
X042250Y088463
X042250Y087463
X065570Y047750
X064570Y047750
X063570Y047750
X062570Y047750
X061570Y047750
X060570Y047750
X060143Y049250
X061143Y049250
X062143Y049250
X063143Y049250
X064143Y049250
X065143Y049250
M30