%
M48
METRIC,000.000
T01C0.40
T02C0.51
T03C0.70
T04C4.50
%
T01
X008750Y010750
X008750Y003500
X011500Y010750
X011500Y003500
X014500Y009750
X017500Y002500
X023136Y011898
X024600Y013000
X025208Y004582
X029000Y004000
X029750Y008299
X030299Y006302
X031950Y010700
X031950Y008299
X031950Y006100
X031950Y003700
X038349Y010700
X038349Y008299
X038349Y006100
X038349Y003700
X051250Y010750
X051250Y003500
X054000Y010750
X054000Y003500
X057000Y009750
X060000Y002500
X065636Y011898
X067100Y013000
X067708Y004582
X071500Y004000
X072250Y008299
X072799Y006302
X074450Y010700
X074450Y008299
X074450Y006100
X074450Y003700
X080850Y010700
X080850Y008299
X080850Y006100
X080850Y003700
X008750Y027250
X008750Y020000
X011500Y027250
X011500Y020000
X014500Y026250
X017500Y019000
X023136Y028398
X024600Y029500
X025208Y021083
X029000Y020500
X029750Y024799
X030299Y022802
X031950Y027200
X031950Y024799
X031950Y022600
X031950Y020200
X038349Y027200
X038349Y024799
X038349Y022600
X038349Y020200
X051250Y027250
X051250Y020000
X054000Y027250
X054000Y020000
X057000Y026250
X060000Y019000
X065636Y028398
X067100Y029500
X067708Y021083
X071500Y020500
X072250Y024799
X072799Y022802
X074450Y027200
X074450Y024799
X074450Y022600
X074450Y020200
X080850Y027200
X080850Y024799
X080850Y022600
X080850Y020200
X008750Y043750
X008750Y036500
X011500Y043750
X011500Y036500
X014500Y042750
X017500Y035500
X023136Y044897
X024600Y046000
X025208Y037583
X029000Y037000
X029750Y041300
X030299Y039302
X031950Y043700
X031950Y041300
X031950Y039100
X031950Y036700
X038349Y043700
X038349Y041300
X038349Y039100
X038349Y036700
X008750Y060250
X008750Y053000
X011500Y060250
X011500Y053000
X014500Y059250
X017500Y052000
X023136Y061397
X024600Y062500
X025208Y054083
X029000Y053500
X029750Y057800
X030299Y055802
X031950Y060200
X031950Y057800
X031950Y055600
X031950Y053200
X038349Y060200
X038349Y057800
X038349Y055600
X038349Y053200
X008750Y076750
X008750Y069500
X011500Y076750
X011500Y069500
X014500Y075750
X017500Y068500
X023136Y077898
X024600Y079000
X025208Y070583
X029000Y070000
X029750Y074300
X030299Y072301
X031950Y076700
X031950Y074300
X031950Y072100
X031950Y069700
X038349Y076700
X038349Y074300
X038349Y072100
X038349Y069700
X008750Y093250
X008750Y086000
X011500Y093250
X011500Y086000
X014500Y092250
X017500Y085000
X023136Y094398
X024600Y095500
X025208Y087083
X029000Y086500
X029750Y090800
X030299Y088801
X031950Y093200
X031950Y090800
X031950Y088600
X031950Y086200
X038349Y093200
X038349Y090800
X038349Y088600
X038349Y086200
X051250Y043750
X051250Y036500
X054000Y043750
X054000Y036500
X057000Y042750
X060000Y035500
X065636Y044897
X067100Y046000
X067708Y037583
X071500Y037000
X072250Y041300
X072799Y039302
X074450Y043700
X074450Y041300
X074450Y039100
X074450Y036700
X080850Y043700
X080850Y041300
X080850Y039100
X080850Y036700
X051250Y060250
X051250Y053000
X054000Y060250
X054000Y053000
X057000Y059250
X060000Y052000
X065636Y061397
X067100Y062500
X067708Y054083
X071500Y053500
X072250Y057800
X072799Y055802
X074450Y060200
X074450Y057800
X074450Y055600
X074450Y053200
X080850Y060200
X080850Y057800
X080850Y055600
X080850Y053200
X051250Y076750
X051250Y069500
X054000Y076750
X054000Y069500
X057000Y075750
X060000Y068500
X065636Y077898
X067100Y079000
X067708Y070583
X071500Y070000
X072250Y074300
X072799Y072301
X074450Y076700
X074450Y074300
X074450Y072100
X074450Y069700
X080850Y076700
X080850Y074300
X080850Y072100
X080850Y069700
X051250Y093250
X051250Y086000
X054000Y093250
X054000Y086000
X057000Y092250
X060000Y085000
X065636Y094398
X067100Y095500
X067708Y087083
X071500Y086500
X072250Y090800
X072799Y088801
X074450Y093200
X074450Y090800
X074450Y088600
X074450Y086200
X080850Y093200
X080850Y090800
X080850Y088600
X080850Y086200
T02
X000899Y013600
X000899Y000899
X028100Y013600
X043400Y013600
X043400Y000899
X070600Y013600
X000899Y030100
X000899Y017400
X028100Y030100
X043400Y030100
X043400Y017400
X070600Y030100
X000899Y046600
X000899Y033900
X028100Y046600
X000899Y063100
X000899Y050400
X028100Y063100
X000899Y079600
X000899Y066900
X028100Y079600
X000899Y096100
X000899Y083400
X028100Y096100
X043400Y046600
X043400Y033900
X070600Y046600
X043400Y063100
X043400Y050400
X070600Y063100
X043400Y079600
X043400Y066900
X070600Y079600
X043400Y096100
X043400Y083400
X070600Y096100
T03
X023250Y009500
X023250Y007000
X023250Y004500
X025750Y009500
X025750Y007000
X065750Y009500
X065750Y007000
X065750Y004500
X068250Y009500
X068250Y007000
X023250Y026000
X023250Y023500
X023250Y021000
X025750Y026000
X025750Y023500
X065750Y026000
X065750Y023500
X065750Y021000
X068250Y026000
X068250Y023500
X023250Y042500
X023250Y040000
X023250Y037500
X025750Y042500
X025750Y040000
X023250Y059000
X023250Y056500
X023250Y054000
X025750Y059000
X025750Y056500
X023250Y075500
X023250Y073000
X023250Y070500
X025750Y075500
X025750Y073000
X023250Y092000
X023250Y089500
X023250Y087000
X025750Y092000
X025750Y089500
X065750Y042500
X065750Y040000
X065750Y037500
X068250Y042500
X068250Y040000
X065750Y059000
X065750Y056500
X065750Y054000
X068250Y059000
X068250Y056500
X065750Y075500
X065750Y073000
X065750Y070500
X068250Y075500
X068250Y073000
X065750Y092000
X065750Y089500
X065750Y087000
X068250Y092000
X068250Y089500
T04
X003460Y007076
X045960Y007076
X003460Y023576
X045960Y023576
X003460Y040076
X003460Y056576
X003460Y073076
X003460Y089576
X045960Y040076
X045960Y056576
X045960Y073076
X045960Y089576
M30